<svg width="36" height="37" viewBox="0 0 36 37" fill="none" xmlns="http://www.w3.org/2000/svg">
<g id="&#240;&#159;&#166;&#134; icon &#34;edit 2&#34;">
<g id="Group">
<path id="Vector" d="M4.59883 36.2914C3.37533 36.2914 2.23206 35.87 1.40971 35.0878C0.366731 34.105 -0.134703 32.6207 0.0458137 31.0161L0.787936 24.5176C0.928337 23.2941 1.67046 21.6694 2.53293 20.7869L19 3.35716C23.1118 -0.995287 27.4041 -1.11563 31.7565 2.99613C36.109 7.10788 36.2293 11.4002 32.1175 15.7526L15.6505 33.1823C14.808 34.0849 13.2436 34.9273 12.0201 35.1281L5.56159 36.2311C5.22061 36.2511 4.91975 36.2914 4.59883 36.2914ZM25.4384 2.97607C23.894 2.97607 22.5502 3.93882 21.1863 5.38295L4.71918 22.8329C4.31803 23.2542 3.85671 24.257 3.77648 24.8387L3.03436 31.3371C2.95413 31.999 3.11459 32.5405 3.47562 32.8815C3.83665 33.2225 4.3782 33.3428 5.04009 33.2425L11.4986 32.1396C12.0802 32.0393 13.043 31.5176 13.4441 31.0964L29.9112 13.6666C32.3983 11.0191 33.3009 8.57207 29.6705 5.16232C28.066 3.61791 26.682 2.97607 25.4384 2.97607Z" fill="#292D32"/>
<path id="Vector_2" d="M28.2674 19.1017C28.2273 19.1017 28.1671 19.1017 28.127 19.1017C21.8691 18.4799 16.8347 13.7264 15.8719 7.50862C15.7516 6.68627 16.3132 5.92409 17.1356 5.78369C17.9579 5.66334 18.7201 6.22495 18.8605 7.0473C19.6227 11.9012 23.5539 15.6318 28.4479 16.1132C29.2703 16.1935 29.872 16.9356 29.7917 17.7578C29.6915 18.52 29.0296 19.1017 28.2674 19.1017Z" fill="#292D32"/>
</g>
</g>
</svg>
